<?xml version="1.0" encoding="UTF-8" standalone="no"?>
<svg width="21px" height="14px" viewBox="0 0 21 14" version="1.1" xmlns="http://www.w3.org/2000/svg" xmlns:xlink="http://www.w3.org/1999/xlink">
    <!-- Generator: Sketch 39.1 (31720) - http://www.bohemiancoding.com/sketch -->
    <title>Fill 1</title>
    <desc>Created with Sketch.</desc>
    <defs></defs>
    <g id="Page-1" stroke="none" stroke-width="1" fill="none" fill-rule="evenodd">
        <g id="Apple-Watch-38mm" fill="#0880d5">
            <path d="M6.3927907,3.73059126 C5.48539535,3.73059126 4.73037209,4.41953728 4.59753488,5.36966581 C4.51451163,5.93830334 4.0984186,6.38251928 3.5612093,6.47609254 C2.06386047,6.74138817 0.976744186,8.09871465 0.976744186,9.70282776 C0.976744186,11.5053985 2.3695814,12.9717224 4.0827907,12.9717224 L16.918186,12.9717224 C18.6304186,12.9717224 20.0232558,11.5053985 20.0232558,9.70282776 C20.0232558,8.26940874 19.1197674,6.97789203 17.8265581,6.56246787 C17.3264651,6.40308483 16.968,5.92596401 16.9357674,5.37686375 C16.8019535,2.9377892 14.8777674,1.02827763 12.554093,1.02827763 C10.9815349,1.02827763 9.52130233,1.91568123 8.74186047,3.34498715 C8.42051163,3.93419023 7.73190698,4.17069409 7.14195349,3.89820051 C6.90362791,3.78508997 6.65944186,3.73059126 6.3927907,3.73059126 M16.918186,14 L4.0827907,14 C1.83139535,14 0,12.0719794 0,9.70282776 C0,7.59383033 1.42995349,5.81079692 3.40004651,5.4622108 C3.52018605,5.44164524 3.61297674,5.34190231 3.63153488,5.21542416 C3.83567442,3.76041131 4.99702326,2.70231362 6.3927907,2.70231362 C6.7952093,2.70231362 7.182,2.78868895 7.54046512,2.95835476 C7.66939535,3.01902314 7.82372093,2.9655527 7.89502326,2.83290488 C8.84734884,1.08586118 10.6328372,0 12.554093,0 C15.3944651,0 17.7474419,2.33419023 17.9105581,5.3151671 C17.9173953,5.43650386 17.9984651,5.54344473 18.1107907,5.57840617 C19.8122791,6.12442159 21,7.82107969 21,9.70282776 C21,12.0719794 19.1686047,14 16.918186,14" id="Fill-1"></path>
        </g>
    </g>
</svg>