<?xml version="1.0" encoding="UTF-8" standalone="no"?>
<svg width="16px" height="10px" viewBox="0 0 16 10" version="1.1" xmlns="http://www.w3.org/2000/svg" xmlns:xlink="http://www.w3.org/1999/xlink">
    <!-- Generator: Sketch 39.1 (31720) - http://www.bohemiancoding.com/sketch -->
    <title>Page 1</title>
    <desc>Created with Sketch.</desc>
    <defs></defs>
    <g id="Page-1" stroke="none" stroke-width="1" fill="none" fill-rule="evenodd">
        <g id="iPhone-6-Plus" fill="#0089d0">
            <g id="Page-1" transform="translate(-518.000000, -546.000000)">
                <path d="M527.182222,549.796791 C526.862222,549.475936 526.471111,549.315508 526.008889,549.315508 C525.546667,549.315508 525.1408,549.475936 524.791111,549.796791 C524.471111,550.153298 524.311111,550.56328 524.311111,551.026738 C524.311111,551.490196 524.471111,551.882353 524.791111,552.203209 C525.1408,552.524064 525.546667,552.684492 526.008889,552.684492 C526.471111,552.684492 526.862222,552.524064 527.182222,552.203209 C527.502222,551.882353 527.662222,551.490196 527.662222,551.026738 C527.662222,550.56328 527.502222,550.153298 527.182222,549.796791 M526.008889,547.497326 C526.968889,547.497326 527.786667,547.836007 528.462222,548.513369 C529.137778,549.190731 529.475556,550.02852 529.475556,551.026738 C529.475556,551.989305 529.137778,552.809269 528.462222,553.486631 C527.786667,554.163993 526.968889,554.502674 526.008889,554.502674 C525.0192,554.502674 524.186667,554.163993 523.511111,553.486631 C522.835556,552.809269 522.497778,551.989305 522.497778,551.026738 C522.497778,550.02852 522.835556,549.190731 523.511111,548.513369 C524.186667,547.836007 525.0192,547.497326 526.008889,547.497326 M533.786667,551.614973 C534.071111,551.222816 534.071111,550.812834 533.786667,550.385027 C531.232533,547.461676 528.64,546 526.008889,546 C523.4192,546 520.829689,547.479501 518.24,550.438503 C517.92,550.901961 517.92,551.294118 518.24,551.614973 C519.022222,552.613191 519.996978,553.522282 521.164444,554.342246 C522.8,555.447415 524.414756,556 526.008889,556 C528.64,556 531.232533,554.538324 533.786667,551.614973"></path>
            </g>
        </g>
    </g>
</svg>