<?xml version="1.0" encoding="UTF-8" standalone="no"?>
<svg width="10px" height="22px" viewBox="0 0 10 22" version="1.1" xmlns="http://www.w3.org/2000/svg" xmlns:xlink="http://www.w3.org/1999/xlink">
    <!-- Generator: Sketch 39.1 (31720) - http://www.bohemiancoding.com/sketch -->
    <title>iPhone 6 Plus</title>
    <desc>Created with Sketch.</desc>
    <defs></defs>
    <g id="Page-1" stroke="none" stroke-width="1" fill="none" fill-rule="evenodd">
        <g id="iPhone-6-Plus" fill="#ffffff">
            <path d="M5,20.9995 C2.794,20.9995 1,19.2055 1,16.9995 C1,15.6295 1.704,14.2315 2.795,13.4375 C2.806,13.4295 2.811,13.4175 2.821,13.4085 C2.847,13.3865 2.868,13.3615 2.888,13.3355 C2.908,13.3095 2.927,13.2855 2.941,13.2575 C2.955,13.2295 2.964,13.2005 2.972,13.1705 C2.982,13.1375 2.99,13.1055 2.992,13.0705 C2.993,13.0575 3,13.0465 3,13.0335 L3,2.9995 C3,1.8965 3.897,0.9995 5,0.9995 C6.103,0.9995 7,1.8965 7,2.9995 L7,4.4995 L4.5,4.4995 L4.5,5.4995 L7,5.4995 L7,7.4995 L4.5,7.4995 L4.5,8.4995 L7,8.4995 L7,10.4995 L4.5,10.4995 L4.5,11.4995 L7,11.4995 L7,13.0335 C7,13.0495 7.008,13.0635 7.009,13.0795 C7.012,13.1065 7.018,13.1305 7.025,13.1575 C7.035,13.1955 7.046,13.2305 7.064,13.2645 C7.075,13.2865 7.09,13.3045 7.104,13.3245 C7.129,13.3575 7.154,13.3875 7.186,13.4135 C7.195,13.4205 7.199,13.4305 7.208,13.4375 C8.297,14.2305 9,15.6285 9,16.9995 C9,19.2055 7.206,20.9995 5,20.9995 M8,12.7985 L8,2.9995 C8,1.3455 6.654,-0.0005 5,-0.0005 C3.346,-0.0005 2,1.3455 2,2.9995 L2,12.7995 C0.782,13.7965 0,15.4105 0,16.9995 C0,19.7565 2.243,21.9995 5,21.9995 C7.757,21.9995 10,19.7565 10,16.9995 C10,15.3835 9.236,13.8025 8,12.7985" id="Page-1"></path>
        </g>
    </g>
</svg>