<?xml version="1.0" encoding="UTF-8" standalone="no"?>
<svg width="23px" height="15px" viewBox="0 0 23 15" version="1.1" xmlns="http://www.w3.org/2000/svg" xmlns:xlink="http://www.w3.org/1999/xlink">
    <!-- Generator: Sketch 39.1 (31720) - http://www.bohemiancoding.com/sketch -->
    <title>iPhone 6 Plus</title>
    <desc>Created with Sketch.</desc>
    <defs></defs>
    <g id="Page-1" stroke="none" stroke-width="1" fill="none" fill-rule="evenodd">
        <g id="iPhone-6-Plus" fill="#7b8288">
            <path d="M22.5457212,6.28024115 L20.7151497,6.28024115 L20.7151497,4.4478802 C20.7151497,4.20011669 20.5152284,4 20.2677069,4 L18.7268172,4 C18.4792956,4 18.2780144,4.20011669 18.2780144,4.4478802 L18.2780144,6.28024115 L16.4488028,6.28024115 C16.2012813,6.28024115 16,6.48035784 16,6.72812135 L16,8.27051731 C16,8.51828082 16.2012813,8.71975885 16.4488028,8.71975885 L18.2780144,8.71975885 L18.2780144,10.5521198 C18.2780144,10.7998833 18.4792956,11 18.7268172,11 L20.2677069,11 C20.5152284,11 20.7151497,10.7998833 20.7151497,10.5521198 L20.7151497,8.71975885 L22.5457212,8.71975885 C22.7932428,8.71975885 22.9931641,8.51828082 22.9931641,8.27051731 L22.9931641,6.72812135 C22.9931641,6.48035784 22.7932428,6.28024115 22.5457212,6.28024115" id="Fill-4"></path>
            <path d="M7.72411846,6.70324052 L7.72411846,8.54547941 C7.72411846,8.82221632 7.9487735,9.04681438 8.22691784,9.04681438 L11.8895974,9.04681438 C11.2477259,10.8649892 9.50531203,12.1684601 7.4660326,12.1524174 C4.99215264,12.1350378 2.94752429,10.1564358 2.85124355,7.68452016 C2.74827666,5.03479775 4.87447619,2.84764041 7.50213788,2.84764041 C8.70297258,2.84764041 9.79950316,3.30485789 10.6259128,4.05485501 C10.8211487,4.23266181 11.1193515,4.2339987 11.311913,4.05218122 L12.6571688,2.78614332 C12.8684515,2.58828312 12.8684515,2.2540598 12.658506,2.05486271 C11.3480183,0.812888887 9.58955767,0.0401645913 7.65057067,0.00139468719 C3.51451083,-0.0788189075 0.0283459358,3.31154236 0.000264055151,7.44655317 C-0.0291550579,11.6136494 3.34067062,15 7.50213788,15 C11.5031372,15 14.7713333,11.8676591 14.9906394,7.92248716 C14.9959883,7.87302211 15,6.20056866 15,6.20056866 L8.22691784,6.20056866 C7.9487735,6.20056866 7.72411846,6.42516673 7.72411846,6.70324052" id="Fill-1"></path>
        </g>
    </g>
</svg>