<?xml version="1.0" encoding="UTF-8" standalone="no"?>
<svg width="18px" height="13px" viewBox="0 0 18 13" version="1.1" xmlns="http://www.w3.org/2000/svg" xmlns:xlink="http://www.w3.org/1999/xlink">
    <!-- Generator: Sketch 39.1 (31720) - http://www.bohemiancoding.com/sketch -->
    <title>iPhone 6 Plus</title>
    <desc>Created with Sketch.</desc>
    <defs></defs>
    <g id="Page-1" stroke="none" stroke-width="1" fill="none" fill-rule="evenodd">
        <g id="iPhone-6-Plus" fill="#7b8288">
            <path d="M11.7333797,6.76148255 L6.81133962,9.1570413 C6.67985565,9.22094416 6.5288056,9.12349229 6.5288056,8.97571691 L6.5288056,4.03362888 C6.5288056,3.88345715 6.68376886,3.78600527 6.81525284,3.85390207 L11.7372929,6.39963256 C11.8836471,6.47551721 11.8812992,6.68959182 11.7333797,6.76148255 M14.2613157,0.000559150092 L3.73868429,0.000559150092 C1.67407279,0.000559150092 0,1.70836329 0,3.81556035 L0,9.1849988 C0,11.2921959 1.67407279,13 3.73868429,13 L14.2613157,13 C16.3259272,13 18,11.2921959 18,9.1849988 L18,3.81556035 C18,1.70836329 16.3259272,0.000559150092 14.2613157,0.000559150092" id="Page-1"></path>
        </g>
    </g>
</svg>