<?xml version="1.0" encoding="UTF-8" standalone="no"?>
<svg width="17px" height="15px" viewBox="0 0 17 15" version="1.1" xmlns="http://www.w3.org/2000/svg" xmlns:xlink="http://www.w3.org/1999/xlink">
    <!-- Generator: Sketch 39.1 (31720) - http://www.bohemiancoding.com/sketch -->
    <title>iPhone 6 Plus</title>
    <desc>Created with Sketch.</desc>
    <defs></defs>
    <g id="Page-1" stroke="none" stroke-width="1" fill="none" fill-rule="evenodd">
        <g id="iPhone-6-Plus" fill="#7b8288">
            <path d="M17,1.77476217 C16.374339,2.07582541 15.7028288,2.28007834 14.9975757,2.37129267 C15.7177685,1.9029099 16.2692465,1.15976497 16.5304323,0.27700056 C15.8548008,0.710688304 15.1091077,1.02574147 14.3144745,1.19669838 C13.6782527,0.459429211 12.7731178,0 11.7690723,0 C9.84314914,0 8.28170124,1.69641858 8.28170124,3.78735311 C8.28170124,4.08365976 8.31235322,4.37353106 8.37185412,4.65053162 C5.47408294,4.49216564 2.90421067,2.98405148 1.18435128,0.692501399 C0.883755814,1.25097929 0.71272292,1.90179071 0.71272292,2.5962507 C0.71272292,3.91074426 1.32885347,5.07050923 2.26386763,5.74902071 C1.69229837,5.72803581 1.15472962,5.5573587 0.684131578,5.27336318 L0.684131578,5.32092893 C0.684131578,7.15556799 1.88651343,8.68690543 3.48118911,9.03525462 C3.18909377,9.12059317 2.8810285,9.16815893 2.56214488,9.16815893 C2.33702026,9.16815893 2.11936544,9.14381645 1.90583191,9.09764969 C2.34989924,10.6035255 3.63728238,11.698657 5.16266913,11.7285954 C3.96981772,12.7439843 2.46555251,13.3475098 0.831724723,13.3475098 C0.550190154,13.3475098 0.27303444,13.3290431 0,13.2957471 C1.54341732,14.3724119 3.37609661,15 5.34555069,15 C11.7608297,15 15.2675192,9.22803581 15.2675192,4.22216004 L15.2556705,3.73195299 C15.9408324,3.20089536 16.5335232,2.53413542 17,1.77476217" id="Fill-1"></path>
        </g>
    </g>
</svg>