<?xml version="1.0" encoding="UTF-8" standalone="no"?>
<svg width="8px" height="15px" viewBox="0 0 8 15" version="1.1" xmlns="http://www.w3.org/2000/svg" xmlns:xlink="http://www.w3.org/1999/xlink">
    <!-- Generator: Sketch 39.1 (31720) - http://www.bohemiancoding.com/sketch -->
    <title>iPhone 6 Plus</title>
    <desc>Created with Sketch.</desc>
    <defs>
        <polygon id="path-1" points="7.80475556 9.09090909e-05 0 9.09090909e-05 0 14.7639545 7.80475556 14.7639545 7.80475556 9.09090909e-05"></polygon>
    </defs>
    <g id="Page-1" stroke="none" stroke-width="1" fill="none" fill-rule="evenodd">
        <g id="iPhone-6-Plus">
            <g id="Page-1">
                <mask id="mask-2" fill="white">
                    <use xlink:href="#path-1"></use>
                </mask>
                <g id="Clip-2"></g>
                <path d="M7.51097778,0.00304545455 L5.63897778,-0.000136363636 C3.53586667,-0.000136363636 2.17675556,1.42622727 2.17675556,3.6335 L2.17675556,5.30895455 L0.294533333,5.30895455 C0.131866667,5.30895455 -0.000133333333,5.4435 -0.000133333333,5.60986364 L-0.000133333333,8.03713636 C-0.000133333333,8.2035 0.131866667,8.3385 0.294533333,8.3385 L2.17675556,8.3385 L2.17675556,14.4630455 C2.17675556,14.6294091 2.30831111,14.7639545 2.47097778,14.7639545 L4.92697778,14.7639545 C5.0892,14.7639545 5.2212,14.6294091 5.2212,14.4630455 L5.2212,8.3385 L7.42208889,8.3385 C7.58475556,8.3385 7.71631111,8.2035 7.71631111,8.03713636 L7.7172,5.60986364 C7.7172,5.52986364 7.68608889,5.4535 7.63097778,5.39713636 C7.57586667,5.34031818 7.50075556,5.30895455 7.42253333,5.30895455 L5.2212,5.30895455 L5.2212,3.8885 C5.2212,3.20622727 5.38031111,2.85940909 6.24964444,2.85940909 L7.51053333,2.85895455 C7.6732,2.85895455 7.80475556,2.72395455 7.80475556,2.55804545 L7.80475556,0.303954545 C7.80475556,0.138045455 7.6732,0.0035 7.51097778,0.00304545455" id="Fill-1" fill="#7b8288" mask="url(#mask-2)"></path>
            </g>
        </g>
    </g>
</svg>