<?xml version="1.0" encoding="UTF-8" standalone="no"?>
<svg width="19px" height="11px" viewBox="0 0 19 11" version="1.1" xmlns="http://www.w3.org/2000/svg" xmlns:xlink="http://www.w3.org/1999/xlink">
    <!-- Generator: Sketch 39.1 (31720) - http://www.bohemiancoding.com/sketch -->
    <title>Fill 1</title>
    <desc>Created with Sketch.</desc>
    <defs></defs>
    <g id="Page-1" stroke="none" stroke-width="1" fill="none" fill-rule="evenodd">
        <g id="iPhone-6-Plus" fill="#7b8288">
            <g id="Page-1" transform="translate(-2.000000, -2.000000)">
                <path d="M20.8991074,11.9341728 C20.8761018,11.8835907 20.8546299,11.8423469 20.8346917,11.8088849 C20.5049446,11.2065688 19.8753578,10.4665139 18.9451644,9.59027633 L18.925993,9.57004349 L18.9160239,9.55992707 L18.9060548,9.54981065 L18.8960857,9.54981065 C18.4735494,9.14204114 18.2066843,8.86734145 18.0947237,8.72648977 C17.8899738,8.45879376 17.8439626,8.187985 17.9559232,7.91328531 C18.0349091,7.70628781 18.3324483,7.26816904 18.8462402,6.59892901 C19.1169396,6.24407615 19.3308917,5.95926004 19.4888636,5.74525887 C20.6299418,4.20600679 21.1245623,3.22237957 20.9734922,2.79437722 L20.9144445,2.69399122 C20.8745681,2.63407089 20.7725765,2.57881968 20.607703,2.52823758 C20.4428295,2.47843367 20.2319447,2.46987362 19.9742819,2.50333563 L17.1254207,2.52356846 C17.0794095,2.50644837 17.0134601,2.50800474 16.9275725,2.52823758 C16.8416849,2.54847042 16.7987411,2.55858684 16.7987411,2.55858684 L16.7496625,2.58348879 L16.7097861,2.61383805 C16.6768114,2.63407089 16.6407692,2.66908926 16.6008929,2.71889317 C16.5617833,2.76947527 16.5288086,2.82783922 16.5027356,2.89476323 C16.1921599,3.70485495 15.8394072,4.45736089 15.4437108,5.15305926 C15.1998513,5.56861063 14.97593,5.9281326 14.7711801,6.23240336 C14.5664302,6.53667412 14.3954219,6.7615699 14.2566214,6.90475614 C14.1185877,7.04872057 13.9928237,7.16389211 13.8808631,7.25104895 C13.7689025,7.33820579 13.6830148,7.37555872 13.6239671,7.36155137 C13.5641525,7.34832221 13.5081722,7.33509305 13.4552593,7.32186388 C13.3632369,7.26116537 13.2888521,7.17945583 13.2328718,7.07595708 C13.1768915,6.97168014 13.1393156,6.84172307 13.1193774,6.68452948 C13.0994392,6.5265577 13.0879364,6.39115332 13.084869,6.27753815 C13.0818016,6.16392298 13.0825685,6.00283846 13.0894701,5.79584096 C13.0963718,5.58806528 13.0994392,5.44799178 13.0994392,5.3740641 C13.0994392,5.11959725 13.1040404,4.84334119 13.1140095,4.54607411 C13.1239786,4.24802884 13.132414,4.01223845 13.1393156,3.83792477 C13.1454505,3.66438927 13.1485179,3.47995917 13.1485179,3.28619083 C13.1485179,3.09164431 13.1370151,2.93989802 13.1140095,2.8293956 C13.0917707,2.71889317 13.0564954,2.61228168 13.0104842,2.50800474 C12.964473,2.40450599 12.8969899,2.32435283 12.8080349,2.26754524 C12.7190799,2.20995947 12.6078861,2.16482468 12.4767541,2.13136268 C12.1270689,2.05120951 11.6815269,2.00763109 11.1408951,2.0014056 C9.91392932,1.98817644 9.12637066,2.0683296 8.77668541,2.2418651 C8.63788491,2.31579278 8.51288777,2.41617878 8.40092714,2.54302312 C8.28206483,2.69087847 8.26519405,2.77103164 8.35108165,2.7842608 C8.74677812,2.84418113 9.02744654,2.98814556 9.19232007,3.2153759 L9.2513678,3.33599474 C9.29737902,3.42315158 9.34339023,3.57723243 9.3901683,3.79823728 C9.43617952,4.01846394 9.46608681,4.26281437 9.47912332,4.53051039 C9.51209803,5.01921125 9.51209803,5.43787536 9.47912332,5.78572455 C9.44614862,6.13357373 9.41470762,6.40438249 9.38480033,6.59892901 C9.35489304,6.79269734 9.31041553,6.94989093 9.2513678,7.07050978 C9.19232007,7.19112862 9.15244368,7.26427811 9.13250549,7.29151463 C9.11256729,7.31797295 9.09646337,7.33509305 9.08342686,7.34131854 C8.99753925,7.37478054 8.90858423,7.39190063 8.81579494,7.39190063 C8.72377251,7.39190063 8.61181188,7.34443128 8.47991306,7.25104895 C8.34801424,7.15766662 8.21074744,7.02848773 8.06964638,6.86429046 C7.92777846,6.70087139 7.76750605,6.47130649 7.58959601,6.17715215 C7.41168597,5.88221962 7.22687425,5.53437044 7.03516085,5.13282642 L6.877189,4.84178482 C6.77826489,4.65424197 6.64329865,4.38187684 6.47152344,4.02391124 C6.30051508,3.66594564 6.14867807,3.31887465 6.01677924,2.98425463 C5.96386634,2.84418113 5.88488042,2.73679145 5.77905462,2.66364196 L5.72997599,2.6332927 C5.69700129,2.60683438 5.64408839,2.57804149 5.57123729,2.54769223 C5.49915305,2.51734298 5.42323454,2.49633195 5.34424862,2.48310279 L2.63342109,2.50255744 C2.35658693,2.50255744 2.1687078,2.5663687 2.06978368,2.69321303 L2.02990729,2.75391155 C2.0099691,2.78737355 2,2.84106839 2,2.91421788 C2,2.98814556 2.01993819,3.07841514 2.05981458,3.18502664 C2.45551105,4.12896636 2.88571593,5.03944409 3.35042922,5.91568162 C3.81514251,6.79269734 4.21927437,7.49851213 4.56205793,8.03390415 C4.90560835,8.56929618 5.25452675,9.07433895 5.61111368,9.54981065 C5.96693376,10.0245042 6.20312467,10.3295531 6.31815272,10.4634011 C6.43394761,10.5972491 6.52443634,10.6976351 6.59038575,10.7645591 L6.83731261,11.0050186 C6.99605131,11.1661032 7.22840796,11.3583151 7.5351494,11.5824327 C7.84189085,11.8065503 8.181607,12.0275552 8.55429786,12.2454473 C8.92622187,12.4625612 9.36026101,12.6399876 9.85488159,12.7769484 C10.3495022,12.9139091 10.8310862,12.9691603 11.298867,12.942702 L12.4368777,12.942702 C12.6677007,12.9224692 12.8425433,12.8485415 12.9614056,12.7216971 L13.0005151,12.6718932 C13.0265882,12.6314276 13.0518943,12.5691727 13.0741331,12.4859068 C13.0979055,12.4026409 13.1094083,12.3100367 13.1094083,12.2096507 C13.1025067,11.9225 13.1239786,11.6625859 13.1730572,11.4322428 C13.2229027,11.2011215 13.278883,11.027586 13.341765,10.9100799 C13.404647,10.793352 13.4751975,10.6945224 13.5541834,10.6143692 C13.6331694,10.5342161 13.6899165,10.4851903 13.7228912,10.4688484 C13.7558659,10.4517283 13.781939,10.4400555 13.8018772,10.4330519 C13.959849,10.3801352 14.1461944,10.4314955 14.3609134,10.5894673 C14.5748656,10.7466609 14.7757813,10.9404292 14.9644272,11.1715505 C15.1523064,11.4026717 15.3777613,11.6618077 15.641559,11.9489584 C15.9053566,12.2368872 16.1361796,12.4508884 16.3340278,12.5917401 L16.531876,12.7123589 C16.6637749,12.7925121 16.8355501,12.8664398 17.0464348,12.9333638 C17.2573196,13.0002878 17.4421313,13.0166297 17.6001031,12.9831677 L20.1330206,12.9434802 C20.3830149,12.9434802 20.5777957,12.9014581 20.7165962,12.817414 C20.8546299,12.7341481 20.9374501,12.641544 20.9635231,12.5419362 C20.990363,12.4415502 20.9918967,12.3271568 20.9688911,12.2003125 C20.9451186,12.0734681 20.922113,11.9839767 20.8991074,11.9341728" id="Fill-1"></path>
            </g>
        </g>
    </g>
</svg>