<?xml version="1.0" encoding="UTF-8" standalone="no"?>
<svg width="13px" height="21px" viewBox="0 0 13 21" version="1.1" xmlns="http://www.w3.org/2000/svg" xmlns:xlink="http://www.w3.org/1999/xlink">
    <!-- Generator: Sketch 39.1 (31720) - http://www.bohemiancoding.com/sketch -->
    <title>iPhone 6 Plus</title>
    <desc>Created with Sketch.</desc>
    <defs></defs>
    <g id="Page-1" stroke="none" stroke-width="1" fill="none" fill-rule="evenodd">
        <g id="iPhone-6-Plus" fill="#4c4c4c">
            <g id="Page-1">
                <path d="M9.5,12.9941 C9.224,12.9941 9,13.2181 9,13.4941 C9,15.4211 7.879,16.9891 6.5,16.9891 C6.224,16.9891 6,17.2121 6,17.4891 C6,17.7651 6.224,17.9891 6.5,17.9891 C8.43,17.9891 10,15.9721 10,13.4941 C10,13.2181 9.776,12.9941 9.5,12.9941" id="Fill-1"></path>
                <path d="M6.5,19.9897 C3.468,19.9897 1,17.4277 1,14.2807 C1,11.5487 5.133,3.9387 6.5,1.4967 C7.867,3.9387 12,11.5487 12,14.2807 C12,17.4277 9.532,19.9897 6.5,19.9897 M6.933,0.2317 C6.755,-0.0773 6.245,-0.0773 6.067,0.2317 C5.819,0.6597 0,10.7577 0,14.2807 C0,17.9797 2.916,20.9897 6.5,20.9897 C10.084,20.9897 13,17.9797 13,14.2807 C13,10.7577 7.181,0.6597 6.933,0.2317" id="Fill-3"></path>
            </g>
        </g>
    </g>
</svg>