<?xml version="1.0" encoding="UTF-8" standalone="no"?>
<svg width="11px" height="14px" viewBox="0 0 11 14" version="1.1" xmlns="http://www.w3.org/2000/svg" xmlns:xlink="http://www.w3.org/1999/xlink">
    <!-- Generator: Sketch 39.1 (31720) - http://www.bohemiancoding.com/sketch -->
    <title>Page 1</title>
    <desc>Created with Sketch.</desc>
    <defs></defs>
    <g id="Page-1" stroke="none" stroke-width="1" fill="none" fill-rule="evenodd">
        <g id="iPhone-6-Plus" fill="#4A4A4A">
            <path d="M9.00724638,3.98550725 C10.1072464,3.98550725 11,3.09275362 11,1.99275362 C11,0.892753623 10.1072464,0 9.00724638,0 C7.90724638,0 7.01449275,0.892753623 7.01449275,1.99275362 C7.01449275,2.18405797 7.04637681,2.35942029 7.0942029,2.53478261 L3.33188406,5.30869565 C2.98115942,4.97391304 2.50289855,4.7826087 1.99275362,4.7826087 C0.892753623,4.7826087 0,5.67536232 0,6.77536232 C0,7.87536232 0.892753623,8.76811594 1.99275362,8.76811594 C2.51884058,8.76811594 2.99710145,8.56086957 3.34782609,8.24202899 L7.0942029,11.0318841 C7.04637681,11.2072464 7.01449275,11.3826087 7.01449275,11.573913 C7.01449275,12.673913 7.90724638,13.5666667 9.00724638,13.5666667 C10.1072464,13.5666667 11,12.673913 11,11.573913 C11,10.473913 10.1072464,9.58115942 9.00724638,9.58115942 C8.49710145,9.58115942 8.03478261,9.77246377 7.68405797,10.0913043 L3.9057971,7.26956522 C3.95362319,7.11014493 3.96956522,6.95072464 3.96956522,6.77536232 C3.96956522,6.6 3.93768116,6.44057971 3.9057971,6.28115942 L7.66811594,3.47536232 C8.01884058,3.77826087 8.49710145,3.98550725 9.00724638,3.98550725" id="Page-1"></path>
        </g>
    </g>
</svg>