<?xml version="1.0" encoding="UTF-8" standalone="no"?>
<svg width="18px" height="18px" viewBox="0 0 18 18" version="1.1" xmlns="http://www.w3.org/2000/svg" xmlns:xlink="http://www.w3.org/1999/xlink">
    <!-- Generator: Sketch 39.1 (31720) - http://www.bohemiancoding.com/sketch -->
    <title>Page 1</title>
    <desc>Created with Sketch.</desc>
    <defs></defs>
    <g id="Page-1" stroke="none" stroke-width="1" fill="none" fill-rule="evenodd">
        <g id="iPhone-6-Plus" fill="#4A4A4A">
            <path d="M9,4.29262673 C11.6129032,4.29262673 13.7073733,6.4078341 13.7073733,9 C13.7073733,11.6129032 11.5921659,13.7073733 9,13.7073733 C6.4078341,13.7073733 4.29262673,11.6129032 4.29262673,9 C4.29262673,6.38709677 6.38709677,4.29262673 9,4.29262673 M1.86635945,10.6797235 C2.05299539,11.4677419 2.3640553,12.1935484 2.75806452,12.8571429 C2.32258065,13.3341014 1.94930876,13.7695853 1.63824885,14.1635945 C2.23963134,15.0138249 2.98617512,15.7603687 3.83640553,16.3617512 C4.23041475,16.0506912 4.66589862,15.6774194 5.14285714,15.2419355 C5.80645161,15.656682 6.53225806,15.9470046 7.3202765,16.1336406 C7.36175115,16.7764977 7.40322581,17.3571429 7.44470046,17.8548387 C7.94239631,17.937788 8.46082949,18 9,18 C9.53917051,18 10.0576037,17.9585253 10.5552995,17.8548387 C10.5967742,17.3571429 10.6382488,16.7764977 10.6797235,16.1336406 C11.4677419,15.9470046 12.1935484,15.6359447 12.8571429,15.2419355 C13.3341014,15.6774194 13.7695853,16.0506912 14.1635945,16.3617512 C15.0138249,15.7603687 15.7603687,15.0138249 16.3617512,14.1635945 C16.0506912,13.7695853 15.6774194,13.3341014 15.2419355,12.8571429 C15.656682,12.1935484 15.9470046,11.4677419 16.1336406,10.6797235 C16.7764977,10.6382488 17.3571429,10.5967742 17.8548387,10.5552995 C17.937788,10.0576037 18,9.53917051 18,9 C18,8.46082949 17.9585253,7.94239631 17.8548387,7.44470046 C17.3571429,7.40322581 16.7764977,7.36175115 16.1336406,7.3202765 C15.9470046,6.53225806 15.6359447,5.80645161 15.2419355,5.14285714 C15.6774194,4.66589862 16.0506912,4.23041475 16.3617512,3.83640553 C15.7603687,2.98617512 15.0138249,2.23963134 14.1635945,1.63824885 C13.7695853,1.94930876 13.3341014,2.32258065 12.8571429,2.75806452 C12.1935484,2.34331797 11.4677419,2.05299539 10.6797235,1.86635945 C10.6382488,1.2235023 10.5967742,0.642857143 10.5552995,0.14516129 C10.0576037,0.0622119816 9.53917051,0 9,0 C8.46082949,0 7.94239631,0.0414746544 7.44470046,0.14516129 C7.40322581,0.642857143 7.36175115,1.2235023 7.3202765,1.86635945 C6.53225806,2.05299539 5.80645161,2.3640553 5.14285714,2.75806452 C4.66589862,2.32258065 4.23041475,1.94930876 3.83640553,1.63824885 C2.98617512,2.23963134 2.23963134,2.98617512 1.63824885,3.83640553 C1.94930876,4.23041475 2.32258065,4.66589862 2.75806452,5.14285714 C2.34331797,5.80645161 2.05299539,6.53225806 1.86635945,7.3202765 C1.2235023,7.36175115 0.642857143,7.40322581 0.14516129,7.44470046 C0.0622119816,7.94239631 -2.84217094e-14,8.46082949 -2.84217094e-14,9 C-2.84217094e-14,9.53917051 0.0414746544,10.0576037 0.14516129,10.5552995 C0.642857143,10.5967742 1.2235023,10.6382488 1.86635945,10.6797235" id="Page-1"></path>
        </g>
    </g>
</svg>