<?xml version="1.0" encoding="UTF-8" standalone="no"?>
<svg width="30px" height="30px" viewBox="0 0 30 30" version="1.1" xmlns="http://www.w3.org/2000/svg" xmlns:xlink="http://www.w3.org/1999/xlink">
    <!-- Generator: Sketch 39.1 (31720) - http://www.bohemiancoding.com/sketch -->
    <title>iPhone 6 Plus</title>
    <desc>Created with Sketch.</desc>
    <defs></defs>
    <g id="Page-1" stroke="none" stroke-width="1" fill="none" fill-rule="evenodd">
        <g id="iPhone-6-Plus" fill="#1097dc">
            <path d="M15.0006912,3.10216119 C15.4209483,3.10216119 15.8356758,3.12289756 16.2476384,3.16851758 C12.0464495,5.44122391 9.17930049,9.88018985 9.17930049,14.9979264 C9.17930049,20.112898 12.0395373,24.5532464 16.2448735,26.8259527 C15.8356758,26.8688079 15.4209483,26.8923091 15.0006912,26.8923091 C8.43970324,26.8923091 3.10492604,21.5602968 3.10492604,14.9979264 C3.10492604,8.43555597 8.43970324,3.10216119 15.0006912,3.10216119 M15.0006912,29.9944703 C23.2675914,29.9944703 30,23.2662089 30,14.9979264 C30,6.72549652 23.2689738,0 15.0006912,0 C6.72826137,0 0,6.72549652 0,14.9979264 C0.00138242477,23.2662089 6.72826137,29.9944703 15.0006912,29.9944703" id="Page-1"></path>
        </g>
    </g>
</svg>