<?xml version="1.0" encoding="UTF-8" standalone="no"?>
<svg width="30px" height="30px" viewBox="0 0 30 30" version="1.1" xmlns="http://www.w3.org/2000/svg" xmlns:xlink="http://www.w3.org/1999/xlink">
    <!-- Generator: Sketch 39.1 (31720) - http://www.bohemiancoding.com/sketch -->
    <title>iPhone 6 Plus</title>
    <desc>Created with Sketch.</desc>
    <defs></defs>
    <g id="Page-1" stroke="none" stroke-width="1" fill="none" fill-rule="evenodd">
        <g id="iPhone-6-Plus" fill="#d1d1d1">
            <path d="M15.0006912,26.8946447 C14.5776692,26.8946447 14.1643242,26.8697576 13.7523616,26.8282791 C17.9576978,24.5524933 20.8206995,20.1170615 20.8206995,14.9958522 C20.8206995,9.8815559 17.9576978,5.44197622 13.7551265,3.16757305 C14.1643242,3.12332934 14.5790517,3.09982487 15.0006912,3.09982487 C21.5602968,3.09982487 26.895074,8.43810489 26.895074,14.9958522 C26.895074,21.5618951 21.5616792,26.8946447 15.0006912,26.8946447 M15.0006912,0 C6.73240864,0 0,6.72780901 0,14.9972348 C0,23.2694258 6.73102622,30 15.0006912,30 C23.2675914,30 30,23.2708084 30,14.9972348 C30,6.72780901 23.2689738,0 15.0006912,0" id="Page-1"></path>
        </g>
    </g>
</svg>