<?xml version="1.0" encoding="UTF-8" standalone="no"?>
<svg width="23px" height="21px" viewBox="0 0 23 21" version="1.1" xmlns="http://www.w3.org/2000/svg" xmlns:xlink="http://www.w3.org/1999/xlink">
    <!-- Generator: Sketch 39.1 (31720) - http://www.bohemiancoding.com/sketch -->
    <title>Page 1</title>
    <desc>Created with Sketch.</desc>
    <defs>
        <polygon id="path-1" points="8.2381 0.037 0.0001 0.037 0.0001 11.9996 8.2381 11.9996 8.2381 0.037"></polygon>
    </defs>
    <g id="Page-1" stroke="none" stroke-width="1" fill="none" fill-rule="evenodd">
        <g id="Apple-Watch-38mm">
            <g id="Page-1" transform="translate(0.000000, -1.000000)">
                <g id="Group-3" transform="translate(0.000000, 0.963400)">
                    <mask id="mask-2" fill="white">
                        <use xlink:href="#path-1"></use>
                    </mask>
                    <g id="Clip-2"></g>
                    <path d="M4.1191,1.1616 C2.1921,4.4206 1.0001,7.0276 1.0001,7.9896 C1.0001,9.6496 2.3991,10.9996 4.1191,10.9996 C5.8391,10.9996 7.2381,9.6496 7.2381,7.9896 C7.2381,7.0276 6.0461,4.4206 4.1191,1.1616 M4.1191,11.9996 C1.8481,11.9996 0.0001,10.2016 0.0001,7.9896 C0.0001,6.3676 2.1121,2.5776 3.3701,0.4636 C3.5301,0.1966 3.8091,0.0366 4.1181,0.0366 L4.1191,0.0366 C4.4281,0.0366 4.7081,0.1956 4.8671,0.4626 C6.1261,2.5776 8.2381,6.3676 8.2381,7.9896 C8.2381,10.2016 6.3901,11.9996 4.1191,11.9996" id="Fill-1" fill="#4A4A4A" mask="url(#mask-2)"></path>
                </g>
                <g id="Group-6" transform="translate(14.000000, 0.963400)" fill="#4A4A4A">
                    <path d="M4.119,1.125 C2.192,4.384 1,6.991 1,7.953 C1,9.613 2.399,10.963 4.119,10.963 C5.839,10.963 7.238,9.613 7.238,7.953 C7.238,6.991 6.046,4.384 4.119,1.125 M4.119,11.963 C1.848,11.963 0,10.165 0,7.953 C0,6.331 2.112,2.541 3.37,0.427 C3.53,0.16 3.809,0 4.118,0 L4.119,0 C4.428,0 4.708,0.159 4.867,0.426 C6.126,2.541 8.238,6.331 8.238,7.953 C8.238,10.165 6.39,11.963 4.119,11.963" id="Fill-4"></path>
                </g>
                <path d="M11.1191,11.125 C9.1921,14.384 8.0001,16.991 8.0001,17.953 C8.0001,19.613 9.3991,20.963 11.1191,20.963 C12.8391,20.963 14.2381,19.613 14.2381,17.953 C14.2381,16.991 13.0461,14.384 11.1191,11.125 M11.1191,21.963 C8.8481,21.963 7.0001,20.165 7.0001,17.953 C7.0001,16.331 9.1121,12.541 10.3701,10.427 C10.5301,10.16 10.8091,10 11.1181,10 L11.1191,10 C11.4281,10 11.7081,10.159 11.8671,10.426 C13.1261,12.541 15.2381,16.331 15.2381,17.953 C15.2381,20.165 13.3901,21.963 11.1191,21.963" id="Fill-7" fill="#4A4A4A"></path>
            </g>
        </g>
    </g>
</svg>