<?xml version="1.0" encoding="UTF-8" standalone="no"?>
<svg width="14px" height="21px" viewBox="0 0 14 21" version="1.1" xmlns="http://www.w3.org/2000/svg" xmlns:xlink="http://www.w3.org/1999/xlink">
    <!-- Generator: Sketch 39.1 (31720) - http://www.bohemiancoding.com/sketch -->
    <title>iPhone 6 Plus</title>
    <desc>Created with Sketch.</desc>
    <defs></defs>
    <g id="Page-1" stroke="none" stroke-width="1" fill="none" fill-rule="evenodd">
        <g id="iPhone-6-Plus" fill="#ffffff">
            <g id="Page-1">
                <polygon id="Fill-1" points="0 21 14 21 14 20 0 20"></polygon>
                <path d="M4,10 C4.276,10 4.5,9.776 4.5,9.5 L4.5,1 L9.5,1 L9.5,9.5 C9.5,9.776 9.724,10 10,10 L12,10 L7,16.667 L2,10 L4,10 Z M6.6,17.8 C6.694,17.926 6.843,18 7,18 C7.157,18 7.306,17.926 7.4,17.8 L13.4,9.8 C13.514,9.648 13.532,9.446 13.447,9.276 C13.362,9.107 13.189,9 13,9 L10.5,9 L10.5,0.5 C10.5,0.224 10.276,0 10,0 L4,0 C3.724,0 3.5,0.224 3.5,0.5 L3.5,9 L1,9 C0.811,9 0.638,9.107 0.553,9.276 C0.468,9.446 0.486,9.648 0.6,9.8 L6.6,17.8 Z" id="Fill-2"></path>
            </g>
        </g>
    </g>
</svg>