<?xml version="1.0" encoding="UTF-8" standalone="no"?>
<svg width="42px" height="37px" viewBox="0 0 42 37" version="1.1" xmlns="http://www.w3.org/2000/svg" xmlns:xlink="http://www.w3.org/1999/xlink">
    <!-- Generator: Sketch 39.1 (31720) - http://www.bohemiancoding.com/sketch -->
    <title>iPhone 6 Plus</title>
    <desc>Created with Sketch.</desc>
    <defs>
        <polygon id="path-1" points="0.66615 8 13.4999 8 13.4999 0.666 0.66615 0.666 0.66615 8"></polygon>
    </defs>
    <g id="Page-1" stroke="none" stroke-width="1" fill="none" fill-rule="evenodd">
        <g id="iPhone-6-Plus">
            <g id="Page-1">
                <path d="M21.0842,12.8333 C25.2752,12.8333 28.7382,15.9763 29.2592,20.0283 L28.8552,20.0283 L26.2362,20.0283 L15.9332,20.0283 L13.3122,20.0283 L12.9092,20.0283 C13.4302,15.9773 16.8932,12.8333 21.0842,12.8333 M41.0878061,20.0283 L30.9877255,20.0283 C30.4608081,14.9633 26.1827167,11.0003 21.0002,11.0003 C15.8176833,11.0003 11.5395919,14.9633 11.0126745,20.0283 L0.912593872,20.0283 C0.408585903,20.0283 0.0002,20.4383 0.0002,20.9453 C0.0002,21.4523 0.408585903,21.8623 0.912593872,21.8623 L41.0878061,21.8623 C41.5928102,21.8623 42.0002,21.4523 42.0002,20.9453 C42.0002,20.4383 41.5928102,20.0283 41.0878061,20.0283" id="Fill-1" fill="#4A4A4A"></path>
                <g id="Group-5" transform="translate(14.000000, 28.528800)">
                    <mask id="mask-2" fill="white">
                        <use xlink:href="#path-1"></use>
                    </mask>
                    <g id="Clip-4"></g>
                    <path d="M7.7314,0.935 C7.5524,0.756 7.3184,0.666 7.0834,0.666 C6.8484,0.666 6.6144,0.756 6.4354,0.935 L0.9354,6.435 C0.5764,6.793 0.5764,7.373 0.9354,7.731 C1.2934,8.09 1.8734,8.09 2.2314,7.731 L7.0834,2.879 L11.9354,7.731 C12.2934,8.09 12.8734,8.09 13.2314,7.731 C13.5894,7.373 13.5894,6.793 13.2314,6.435 L7.7314,0.935 Z" id="Fill-3" fill="#4A4A4A" mask="url(#mask-2)"></path>
                </g>
                <path d="M21.0833,7.3333 C21.5893,7.3333 22.0003,6.9223 22.0003,6.4163 L22.0003,0.9163 C22.0003,0.4103 21.5893,0.0003 21.0833,0.0003 C20.5773,0.0003 20.1663,0.4103 20.1663,0.9163 L20.1663,6.4163 C20.1663,6.9223 20.5773,7.3333 21.0833,7.3333" id="Fill-6" fill="#4A4A4A"></path>
                <path d="M31.834,11.2493 C32.069,11.2493 32.303,11.1593 32.482,10.9803 L36.371,7.0913 C36.73,6.7333 36.73,6.1533 36.371,5.7953 C36.013,5.4363 35.434,5.4363 35.075,5.7953 L31.186,9.6843 C30.827,10.0433 30.827,10.6223 31.186,10.9803 C31.365,11.1593 31.599,11.2493 31.834,11.2493" id="Fill-8" fill="#4A4A4A"></path>
                <path d="M9.6846,10.9807 C9.8636,11.1597 10.0976,11.2497 10.3326,11.2497 C10.5676,11.2497 10.8016,11.1597 10.9806,10.9807 C11.3396,10.6227 11.3396,10.0427 10.9806,9.6847 L7.0916,5.7947 C6.7326,5.4367 6.1536,5.4367 5.7956,5.7947 C5.4366,6.1537 5.4366,6.7327 5.7956,7.0917 L9.6846,10.9807 Z" id="Fill-10" fill="#4A4A4A"></path>
            </g>
        </g>
    </g>
</svg>