<?xml version="1.0" encoding="UTF-8" standalone="no"?>
<svg width="43px" height="44px" viewBox="0 0 43 44" version="1.1" xmlns="http://www.w3.org/2000/svg" xmlns:xlink="http://www.w3.org/1999/xlink">
    <!-- Generator: Sketch 39.1 (31720) - http://www.bohemiancoding.com/sketch -->
    <title>iPhone 6 Plus</title>
    <desc>Created with Sketch.</desc>
    <defs>
        <polygon id="path-1" points="0 0.167 0 2 7.3337 2 7.3337 0.167 0 0.167"></polygon>
        <polygon id="path-3" points="0.6667 8 13.50045 8 13.50045 0.6667 0.6667 0.6667 0.6667 8"></polygon>
    </defs>
    <g id="Page-1" stroke="none" stroke-width="1" fill="none" fill-rule="evenodd">
        <g id="iPhone-6-Plus">
            <g id="Page-1">
                <path d="M21.0833,7.3333 C21.5893,7.3333 22.0003,6.9223 22.0003,6.4163 L22.0003,0.9163 C22.0003,0.4103 21.5893,0.0003 21.0833,0.0003 C20.5773,0.0003 20.1663,0.4103 20.1663,0.9163 L20.1663,6.4163 C20.1663,6.9223 20.5773,7.3333 21.0833,7.3333" id="Fill-1" fill="#ffffff"></path>
                <path d="M34.8333,21.0833 C34.8333,21.5893 35.2805931,22.0003 35.8337091,22.0003 L41.8339818,22.0003 C42.3870979,22.0003 42.8333,21.5893 42.8333,21.0833 C42.8333,20.5773 42.3870979,20.1663 41.8339818,20.1663 L35.8337091,20.1663 C35.2805931,20.1663 34.8333,20.5773 34.8333,21.0833" id="Fill-3" fill="#ffffff"></path>
                <g id="Group-7" transform="translate(0.000000, 20.000000)">
                    <mask id="mask-2" fill="white">
                        <use xlink:href="#path-1"></use>
                    </mask>
                    <g id="Clip-6"></g>
                    <path d="M0.9167,2 L6.4167,2 C6.9227,2 7.3337,1.589 7.3337,1.083 C7.3337,0.577 6.9227,0.167 6.4167,0.167 L0.9167,0.167 C0.4107,0.167 -0.0003,0.577 -0.0003,1.083 C-0.0003,1.589 0.4107,2 0.9167,2" id="Fill-5" fill="#ffffff" mask="url(#mask-2)"></path>
                </g>
                <path d="M31.834,11.2493 C32.069,11.2493 32.303,11.1593 32.482,10.9803 L36.372,7.0913 C36.73,6.7333 36.73,6.1533 36.372,5.7953 C36.013,5.4363 35.434,5.4363 35.075,5.7953 L31.186,9.6843 C30.828,10.0433 30.828,10.6223 31.186,10.9803 C31.365,11.1593 31.599,11.2493 31.834,11.2493" id="Fill-8" fill="#ffffff"></path>
                <path d="M9.6846,10.9808 C9.8636,11.1598 10.0976,11.2498 10.3326,11.2498 C10.5676,11.2498 10.8016,11.1598 10.9806,10.9808 C11.3396,10.6228 11.3396,10.0428 10.9806,9.6848 L7.0916,5.7948 C6.7326,5.4368 6.1536,5.4368 5.7956,5.7948 C5.4366,6.1538 5.4366,6.7328 5.7956,7.0918 L9.6846,10.9808 Z" id="Fill-10" fill="#ffffff"></path>
                <g id="Group-17" transform="translate(14.000000, 36.000000)">
                    <mask id="mask-4" fill="white">
                        <use xlink:href="#path-3"></use>
                    </mask>
                    <g id="Clip-16"></g>
                    <path d="M11.9352,0.9352 L7.0832,5.7872 L2.2312,0.9352 C1.8732,0.5772 1.2932,0.5772 0.9352,0.9352 C0.5772,1.2932 0.5772,1.8732 0.9352,2.2312 L6.4352,7.7312 C6.6142,7.9102 6.8482,8.0002 7.0832,8.0002 C7.3182,8.0002 7.5522,7.9102 7.7312,7.7312 L13.2312,2.2312 C13.5902,1.8732 13.5902,1.2932 13.2312,0.9352 C12.8732,0.5772 12.2932,0.5772 11.9352,0.9352" id="Fill-15" fill="#ffffff" mask="url(#mask-4)"></path>
                </g>
                <path d="M26.7541865,27.2002946 L16.2486727,27.2002946 C14.2407756,25.6509573 13.0874329,23.3750614 13.0874329,20.8998527 C13.0874329,16.4344624 16.8615454,12.7997054 21.5004099,12.7997054 C26.1402941,12.7997054 29.9133868,16.4334806 29.9133868,20.8998527 C29.9133868,23.3750614 28.7610639,25.6499755 26.7541865,27.2002946 M42.0647849,27.2002946 L29.4249243,27.2002946 C30.9423194,25.4467354 31.7825974,23.2434953 31.7825974,20.8998527 C31.7825974,15.4418262 27.1692267,11 21.4993901,11 C15.8305733,11 11.2172026,15.4418262 11.2172026,20.8998527 C11.2172026,23.2434953 12.0574806,25.4457536 13.5748757,27.2002946 L0.935015137,27.2002946 C0.419019216,27.2002946 -0.0001,27.6028473 -0.0001,28.1006382 C-0.0001,28.5984291 0.419019216,29 0.935015137,29 L42.0647849,29 C42.5818005,29 42.9999,28.5984291 42.9999,28.1006382 C42.9999,27.6028473 42.5818005,27.2002946 42.0647849,27.2002946" id="Fill-12" fill="#ffffff"></path>
            </g>
        </g>
    </g>
</svg>