<?xml version="1.0" encoding="UTF-8" standalone="no"?>
<svg width="21px" height="23px" viewBox="0 0 21 23" version="1.1" xmlns="http://www.w3.org/2000/svg" xmlns:xlink="http://www.w3.org/1999/xlink">
    <!-- Generator: Sketch 39.1 (31720) - http://www.bohemiancoding.com/sketch -->
    <title>iPhone 6 Plus</title>
    <desc>Created with Sketch.</desc>
    <defs></defs>
    <g id="Page-1" stroke="none" stroke-width="1" fill="none" fill-rule="evenodd">
        <g id="iPhone-6-Plus" fill="#ffffff">
            <path d="M10.5020762,2.14564722 C13.8819125,2.14564722 14.699554,6.96418084 14.699554,11.3409287 C14.699554,15.3966147 14.1871151,20.8235012 10.5426776,20.8235012 C6.89824017,20.8235012 6.29690876,15.3434331 6.29690876,11.2884573 C6.29760083,6.91170941 7.12154789,2.14564722 10.5020762,2.14564722 M16.5280782,1.80943559 C14.8696493,0.644333292 12.8171252,0 10.5027683,0 C8.38580489,0 6.48868888,0.537338932 4.91007858,1.51993537 C1.87127875,3.39265229 0,6.89805895 0,11.3897706 C0,17.4653301 4.199554,23 10.5006921,23 C16.8010612,23 21,17.4667504 21,11.3897706 C20.9993079,7.11930688 19.3079672,3.74030505 16.5280782,1.80943559" id="Page-1"></path>
        </g>
    </g>
</svg>