<?xml version="1.0" encoding="UTF-8" standalone="no"?>
<svg width="21px" height="21px" viewBox="0 0 21 21" version="1.1" xmlns="http://www.w3.org/2000/svg" xmlns:xlink="http://www.w3.org/1999/xlink">
    <!-- Generator: Sketch 39.1 (31720) - http://www.bohemiancoding.com/sketch -->
    <title>Fill 1</title>
    <desc>Created with Sketch.</desc>
    <defs></defs>
    <g id="Page-1" stroke="none" stroke-width="1" fill="none" fill-rule="evenodd">
        <g id="iPhone-6-Plus" fill="#ffffff">
            <g id="Page-1" transform="translate(-515.000000, -541.000000)">
                <path d="M528.591673,560.636522 C526.791981,562.392516 524.669419,562.222864 523.247961,561.409084 C521.775963,560.565433 520.836401,558.710877 520.426795,557.193264 C520.041338,555.769606 519.863066,553.9517 519.916007,551.510188 C517.897107,549.77944 516.123886,548.069253 515.365038,546.453059 C514.637462,544.901082 514.994027,542.782806 516.466025,541.712254 C517.017729,541.311075 517.771856,541.045165 518.805376,541.042862 C518.684947,543.264212 520.383457,544.713077 522.636072,546.508061 C524.112893,544.99734 525.975249,543.507219 527.84721,542.475639 C529.307203,541.670978 530.743067,541.148297 531.964523,541.024508 C533.241362,540.893828 534.544812,541.283546 535.383213,542.246397 C535.927674,542.87221 536.224074,543.766275 535.79522,545.004194 C534.739971,545.146316 533.829281,545.368685 533.031817,545.650664 C531.800697,546.08853 530.955073,546.785452 530.070874,547.459413 C528.451896,548.695085 527.085861,549.946788 525.946278,551.228229 C525.90294,553.291446 525.915005,556.143331 526.512508,558.149185 C526.840121,559.249513 527.447268,560.141313 528.594054,560.636503 L528.591673,560.636503 L528.591673,560.636522 Z" id="Fill-1"></path>
            </g>
        </g>
    </g>
</svg>