<?xml version="1.0" encoding="UTF-8" standalone="no"?>
<svg width="22px" height="22px" viewBox="0 0 22 22" version="1.1" xmlns="http://www.w3.org/2000/svg" xmlns:xlink="http://www.w3.org/1999/xlink">
    <!-- Generator: Sketch 39.1 (31720) - http://www.bohemiancoding.com/sketch -->
    <title>Page 1</title>
    <desc>Created with Sketch.</desc>
    <defs></defs>
    <g id="Page-1" stroke="none" stroke-width="1" fill="none" fill-rule="evenodd">
        <g id="iPhone-6-Plus" fill="#ffffff">
            <g id="Page-1">
                <path d="M6.88895738,10.9999279 C6.88895738,13.2667213 8.73313443,15.1107541 11,15.1107541 C13.2667213,15.1107541 15.1107541,13.2666492 15.1107541,10.9999279 C15.1107541,8.73313443 13.2667213,6.88895738 11,6.88895738 C8.73313443,6.88895738 6.88895738,8.73313443 6.88895738,10.9999279" id="Fill-1"></path>
                <path d="M20.4659869,5.57350164 C20.4980131,5.51716721 20.4974361,5.44799344 20.4643279,5.39223607 C19.5067869,3.77952787 18.1440852,2.42865574 16.5235869,1.48568525 C14.8533902,0.513718033 12.9432852,0 11,0 C7.63688525,0 4.50264262,1.50927213 2.40088525,4.14083279 C2.35450492,4.19882623 2.3484459,4.27925246 2.38559344,4.34352131 L5.48218361,9.70683279 C5.51464262,9.76309508 5.57451148,9.79699672 5.63827541,9.79699672 C5.6463541,9.79699672 5.65457705,9.79641967 5.66272787,9.7953377 C5.7352918,9.78545574 5.79465574,9.73265574 5.81297705,9.66175082 C6.42356721,7.29592131 8.55655738,5.64361311 11,5.64361311 C11.1516197,5.64361311 11.3082164,5.6505377 11.4656066,5.6639541 C11.4707279,5.66445902 11.4759213,5.66467541 11.4810426,5.66467541 L20.3092459,5.66467541 C20.3740918,5.66467541 20.4339607,5.6299082 20.4659869,5.57350164" id="Fill-3"></path>
                <path d="M12.6254754,16.2240262 C12.580682,16.1661049 12.5055213,16.1412197 12.4346164,16.1608393 C11.9688656,16.2905311 11.4862361,16.3562426 11,16.3562426 C8.9340918,16.3562426 7.0300459,15.1445836 6.1491082,13.2694623 C6.14694426,13.2648459 6.14456393,13.2603738 6.14203934,13.2559016 L1.72472787,5.60509508 C1.69255738,5.54919344 1.63297705,5.51493115 1.56856393,5.51493115 L1.56762623,5.51493115 C1.50285246,5.5152918 1.4432,5.55027541 1.4114623,5.60668197 C0.488111475,7.24514098 0,9.1100918 0,10.9999279 C0,13.6511082 0.956459016,16.2119803 2.69316066,18.2108066 C4.41262295,20.1897246 6.77982295,21.4920525 9.35887213,21.8779541 C9.36781639,21.8793246 9.37676066,21.8799016 9.38563279,21.8799016 C9.44932459,21.8799016 9.50919344,21.846 9.54172459,21.7897377 L12.6391082,16.4247672 C12.6757508,16.3612918 12.670341,16.2819475 12.6254754,16.2240262" id="Fill-5"></path>
                <path d="M21.074918,6.86789508 L14.8735148,6.86789508 C14.8002295,6.86789508 14.7342295,6.91225574 14.7066033,6.98005902 C14.6789049,7.0478623 14.6949902,7.12576393 14.7472852,7.17697705 C15.7848918,8.19417049 16.3563148,9.55182295 16.3563148,10.9999279 C16.3563148,12.096177 16.0255213,13.1511672 15.3996393,14.0509311 C15.3967541,14.0551148 15.3940852,14.0593705 15.3915607,14.0637705 L10.9666033,21.7278492 C10.9342164,21.7839672 10.9344328,21.853141 10.9671082,21.9091148 C10.9994951,21.9644393 11.0587869,21.998341 11.1227672,21.998341 L11.1247869,21.998341 C14.0367213,21.965882 16.7692656,20.8073836 18.8189443,18.7364262 C20.870282,16.6637377 22,13.9161902 22,10.9999279 C22,9.61378361 21.7452328,8.26211803 21.2427672,6.98236721 C21.2156459,6.91326557 21.1490689,6.86789508 21.074918,6.86789508" id="Fill-7"></path>
            </g>
        </g>
    </g>
</svg>