<?xml version="1.0" encoding="UTF-8" standalone="no"?>
<svg width="24px" height="23px" viewBox="0 0 24 23" version="1.1" xmlns="http://www.w3.org/2000/svg" xmlns:xlink="http://www.w3.org/1999/xlink">
    <!-- Generator: Sketch 39.1 (31720) - http://www.bohemiancoding.com/sketch -->
    <title>Fill 1</title>
    <desc>Created with Sketch.</desc>
    <defs></defs>
    <g id="Page-1" stroke="none" stroke-width="1" fill="none" fill-rule="evenodd">
        <g id="iPhone-6-Plus" fill="#ffffff">
            <path d="M19.3691448,7.74490013 C19.3718201,7.74836229 19.6387207,8.09788251 19.6969478,8.9934789 C19.7370773,9.66372052 19.5995354,10.735572 19.5127455,11.3220138 L18.9886225,10.7138549 C18.9320478,10.6482313 18.8394351,10.6271437 18.7601203,10.662316 C18.6808842,10.697331 18.6339091,10.7800293 18.6443742,10.8659536 C18.646184,10.8810612 18.8247997,12.3953603 18.5243004,13.7116085 C18.3820373,14.3301538 18.1594365,14.7748046 17.9684672,15.0682222 L18.0417233,14.0767871 C18.0487263,13.9816565 17.9865649,13.89526 17.8941096,13.8717331 C17.8015757,13.8480488 17.7055796,13.8942371 17.6663156,13.9811844 C17.6575028,14.0007771 16.7490021,15.951229 14.2608933,16.7235254 C13.9134189,16.8305375 13.5474535,16.8848304 13.1730687,16.8848304 C11.8469062,16.884909 10.6419191,16.2082939 9.95885175,15.7328772 C10.0176297,15.7358672 10.0760929,15.7373622 10.1342413,15.7373622 C11.1126934,15.7373622 11.8651612,15.3158449 12.4699366,14.9771046 C12.6288023,14.8881115 12.7788552,14.8040756 12.9232428,14.732708 C13.7923222,14.2956897 14.1963714,14.2590223 14.506785,14.2590223 C14.6707652,14.2590223 14.7972125,14.1632623 14.8368699,14.0091964 C14.9340463,13.6310347 14.4794025,12.9570162 13.9179827,12.6479402 C13.6395153,12.4965497 13.34177,12.4260476 12.9811552,12.4260476 C12.4073818,12.4260476 11.6959877,12.6070239 10.676934,12.8828946 C10.489899,12.9327811 10.3052246,12.9581178 10.1280252,12.9581178 C9.50357844,12.9581965 9.09063785,12.6561235 8.85418844,12.4026781 C8.53598498,12.0616559 8.35477267,11.611025 8.38144699,11.2267259 C8.39356453,11.0514936 8.46217814,10.8723271 8.87913169,10.8723271 C9.24903141,10.8723271 9.66016225,11.0248193 9.6641752,11.0262356 C9.68660052,11.0347337 9.71012743,11.038904 9.73349697,11.038904 L9.73499199,11.038904 C9.84365643,11.038904 9.93170531,10.9508551 9.93170531,10.8421907 C9.93170531,10.8315681 9.93083977,10.821103 9.92926606,10.8109526 L9.87426502,9.08782261 C10.0729455,8.96113924 10.5483622,8.65292881 11.0053666,8.32071936 C12.1109741,7.51702743 12.2590599,7.20968254 12.1407172,6.97622317 C11.983976,6.65833445 11.5714288,6.60671688 11.0937302,6.54691603 C10.8203774,6.51268791 10.5105933,6.47389605 10.2307882,6.38128342 C9.64788733,6.18756014 9.26382425,5.68428879 9.17640485,5.56059545 C9.15830723,5.45704556 9.1150303,5.10815482 9.28617089,4.81033086 C9.47139615,4.48480966 10.1119734,3.98083014 10.3432296,3.81401725 C10.4093252,3.76641262 10.4392257,3.68292749 10.4183741,3.60416348 C10.3975224,3.52547815 10.3303252,3.46764444 10.249358,3.45891037 C10.2295293,3.45670718 9.64182856,3.39800792 8.68178889,3.71589664 C7.90012885,3.97776141 7.2938584,4.40219007 7.08494886,4.55963941 C6.99509022,4.54201389 6.8412604,4.51770013 6.58639863,4.49141923 C8.08338698,2.80094366 10.2067105,1.83862211 12.4689137,1.83862211 C14.1292528,1.83862211 15.6980021,2.34354585 17.0336069,3.30358553 L15.7110639,3.52476999 C15.6212053,3.53979888 15.5534572,3.61454994 15.547241,3.70535281 C15.5410249,3.79623436 15.5980718,3.87948344 15.6849404,3.90662988 C15.7025659,3.91213785 17.4638582,4.46891523 18.7780606,5.48198881 C19.0705339,5.71088443 19.3379067,6.00729206 19.5730971,6.36318579 C19.7923931,6.83325193 19.9640058,7.31795355 20.0855747,7.8099729 L19.6433631,7.46635408 C19.5648352,7.40537295 19.4540462,7.41347754 19.3840163,7.4839009 C19.3135929,7.5541669 19.3077702,7.6667656 19.3691448,7.74490013 M23.7613597,7.67368991 C23.6741764,7.66031341 23.5887241,7.70681644 23.5523715,7.78715415 L23.2838185,8.3816218 C23.1818423,7.60019782 22.9926828,6.34249155 22.7428568,5.51779064 C22.3620985,4.24796683 21.5557313,3.42704281 21.5215819,3.39265732 C21.4598139,3.3305746 21.3646047,3.31680467 21.2876504,3.35882263 C21.2108535,3.40084059 21.1710387,3.48857473 21.1900806,3.574027 L21.3987541,4.51423797 C20.896663,3.98972158 20.0900597,3.23686037 19.2918758,2.86987201 C19.0999623,2.77631515 18.9049013,2.69054815 18.7340755,2.61658394 C17.0000082,1.07623998 14.7762035,0.228326891 12.4685989,0.228326891 C9.21889493,0.228326891 6.25717922,1.85624762 4.50359802,4.59433964 C4.33859489,4.46104669 4.10726003,4.22790207 3.97467525,3.89183704 C3.73358341,3.30075286 3.61146378,2.63672738 3.61020481,2.63011782 C3.59722174,2.55882891 3.54623364,2.5004444 3.4773053,2.47809776 C3.40853432,2.45575113 3.33283904,2.4730619 3.28051329,2.52318446 C1.83537858,3.90891175 1.97882193,6.06929609 2.03272138,6.55895488 C1.85363357,6.75023891 1.34745086,7.31740275 0.836074921,8.13565147 C0.201084332,9.15234458 0.00885607742,10.9296887 0.00106623004,11.0048332 C-0.00766784127,11.0887118 0.0378909631,11.1688135 0.114451786,11.2040645 C0.191327351,11.2393155 0.281736792,11.2217687 0.339491822,11.1605515 L0.762425455,10.7137762 C0.716315854,10.8847594 0.669891511,11.079663 0.627008007,11.2979361 C0.43651083,12.2401929 0.492220042,13.7017728 0.494659287,13.7635408 C0.498278812,13.8540289 0.563194207,13.9304324 0.652029941,13.9484513 C0.74078699,13.9667063 0.830409578,13.9216196 0.869122759,13.8397082 L1.11800445,13.3127526 C1.30149863,14.5954808 2.00596836,17.32476 4.70715696,19.8389923 C6.70781009,21.7025756 9.49043799,22.7715157 12.3416008,22.7716731 L12.342309,22.7716731 C15.1095146,22.7716731 17.7223395,21.7819691 19.8978315,19.9097304 C22.4702122,17.6936368 23.4285208,14.528913 23.7793787,12.2641919 C24.1581698,9.81920273 23.9364346,7.92406662 23.9267563,7.84459444 C23.9162911,7.75693899 23.8487004,7.68706642 23.7613597,7.67368991" id="Fill-1"></path>
        </g>
    </g>
</svg>