<?xml version="1.0" encoding="UTF-8" standalone="no"?>
<svg width="23px" height="23px" viewBox="0 0 23 23" version="1.1" xmlns="http://www.w3.org/2000/svg" xmlns:xlink="http://www.w3.org/1999/xlink">
    <!-- Generator: Sketch 39.1 (31720) - http://www.bohemiancoding.com/sketch -->
    <title>iPhone 6 Plus</title>
    <desc>Created with Sketch.</desc>
    <defs></defs>
    <g id="Page-1" stroke="none" stroke-width="1" fill="none" fill-rule="evenodd">
        <g id="iPhone-6-Plus" fill="#ffffff">
            <g id="Page-1">
                <path d="M11.5,1.02222222 C5.7224,1.02222222 1.02222222,5.7224 1.02222222,11.5 C1.02222222,17.2776 5.7224,21.9777778 11.5,21.9777778 C17.2776,21.9777778 21.9777778,17.2776 21.9777778,11.5 C21.9777778,5.7224 17.2776,1.02222222 11.5,1.02222222 M11.5,23 C5.15915556,23 0,17.8408444 0,11.5 C0,5.15915556 5.15915556,0 11.5,0 C17.8408444,0 23,5.15915556 23,11.5 C23,17.8408444 17.8408444,23 11.5,23" id="Fill-1"></path>
                <path d="M6.7895,10.5139 L11.7485,15.6799 L15.6205,6.8699 L6.7895,10.5139 Z M11.9055,17.0649 C11.7705,17.0649 11.6405,17.0109 11.5455,16.9119 L5.5605,10.6779 C5.4455,10.5579 5.3975,10.3899 5.4325,10.2279 C5.4665,10.0669 5.5775,9.9319 5.7305,9.8689 L16.3885,5.4719 C16.5765,5.3949 16.7945,5.4389 16.9355,5.5849 C17.0785,5.7309 17.1185,5.9489 17.0365,6.1359 L12.3635,16.7659 C12.2965,16.9189 12.1575,17.0279 11.9925,17.0569 C11.9645,17.0619 11.9355,17.0649 11.9055,17.0649 L11.9055,17.0649 Z" id="Fill-3"></path>
            </g>
        </g>
    </g>
</svg>